#!OML:ASF F:\VICON\USERDATA\INSTALL\rory3\rory3.ASF
:FULLY-SPECIFIED
:DEGREES
352
root 2.02371 18.0591 13.8944 178.659 86.3208 179.539
lowerback 10.1399 -1.19259 -2.41827
upperback -0.111876 -1.76989 1.44146
thorax -5.69053 -0.77338 3.13527
lowerneck -21.4694 -4.71764 -10.9002
upperneck 29.7008 -4.68384 6.93533
head 14.2275 -2.14433 3.85337
rclavicle 2.24005e-014 -1.27222e-014
rhumerus -41.4844 -19.5866 -74.2791
rradius 24.5466
rwrist 11.3539
rhand -14.608 9.94363
rfingers 7.12502
rthumb 11.5428 -19.7185
lclavicle 2.24005e-014 -1.27222e-014
lhumerus -32.1586 -0.812255 86.9594
lradius 35.8073
lwrist -4.06216
lhand -19.4885 26.9984
lfingers 7.12502
lthumb 6.83364 56.8681
rfemur -16.6271 2.63446 22.795
rtibia 25.686
rfoot -5.58744 -0.921653
rtoes 8.39135
lfemur 3.372 -4.29917 -21.8177
ltibia 43.5228
lfoot 27.829 -17.0491
ltoes 11.6195
353
root 2.16755 18.071 13.8994 183.794 86.1755 184.84
lowerback 10.2731 -1.17121 -2.16968
upperback -0.0532631 -1.7033 1.57368
thorax -5.71149 -0.744793 3.12708
lowerneck -21.3763 -4.82518 -11.0395
upperneck 29.559 -4.83101 7.03046
head 14.1707 -2.21149 3.88369
rclavicle 6.8208e-015 -3.77691e-015
rhumerus -41.0735 -19.1433 -74.5828
rradius 24.904
rwrist 10.6463
rhand -14.8604 9.92851
rfingers 7.12502
rthumb 11.2994 -19.7471
lclavicle 6.8208e-015 -3.77691e-015
lhumerus -32.219 -0.966282 87.1953
lradius 35.416
lwrist -4.79906
lhand -19.0459 26.7776
lfingers 7.12502
lthumb 7.2608 56.633
rfemur -15.7251 2.46301 23.264
rtibia 25.264
rfoot -5.79031 -0.952558
rtoes 8.78203
lfemur 1.98689 -4.44183 -21.3503
ltibia 45.8474
lfoot 27.183 -17.3728
ltoes 11.3409
354
root 2.31027 18.0774 13.9017 189.299 86.1042 190.544
lowerback 10.4628 -1.13987 -1.85993
upperback -0.0123961 -1.61674 1.69006
thorax -5.78618 -0.707033 3.0667
lowerneck -21.2742 -4.89388 -11.1297
upperneck 29.4958 -4.94799 7.14966
head 14.142 -2.25635 3.92472
rclavicle -2.49723e-014 1.68967e-014
rhumerus -40.6619 -18.6736 -74.915
rradius 25.2354
rwrist 10.0358
rhand -14.8967 9.96959
rfingers 7.12502
rthumb 11.2643 -19.708
lclavicle -2.49723e-014 1.68967e-014
lhumerus -32.2913 -0.834585 87.1769
lradius 35.0032
lwrist -6.28618
lhand -17.5999 26.3092
lfingers 7.12502
lthumb 8.65642 56.1117
rfemur -14.7727 2.35209 23.7405
rtibia 24.7951
rfoot -6.04412 -0.828225
rtoes 9.58919
lfemur 0.687849 -4.39444 -20.8215
ltibia 48.0731
lfoot 25.5633 -17.526
ltoes 10.0377
355
root 2.45276 18.0844 13.9041 193.693 86.0599 195.064
lowerback 10.5395 -1.04043 -1.54446
upperback 0.0232796 -1.443 1.71933
thorax -5.80989 -0.629254 2.89452
lowerneck -21.1906 -4.99573 -11.1383
upperneck 29.4283 -5.12304 7.21191
head 14.118 -2.32451 3.9168
rclavicle -8.13775e-015 5.96354e-016
rhumerus -40.3297 -18.7571 -75.0077
rradius 25.4695
rwrist 9.92792
rhand -15.0194 10.0418
rfingers 7.12502
rthumb 11.1461 -19.6421
lclavicle -8.13775e-015 5.96354e-016
lhumerus -32.3073 -0.826274 87.0685
lradius 34.5977
lwrist -8.11085
lhand -15.6761 25.7288
lfingers 7.12502
lthumb 10.5127 55.4459
rfemur -13.8313 2.34661 24.1314
rtibia 24.234
rfoot -6.27363 -0.731181
rtoes 10.4649
lfemur -0.681053 -4.12758 -20.2744
ltibia 50.1768
lfoot 23.5169 -17.432
ltoes 8.87783
356
root 2.59619 18.0941 13.9049 200.917 85.9507 202.312
lowerback 10.4557 -0.941655 -1.03117
upperback 0.0362526 -1.24068 1.8147
thorax -5.76984 -0.542736 2.67139
lowerneck -21.0167 -5.06427 -11.1115
upperneck 29.3028 -5.24639 7.20279
head 14.0395 -2.37728 3.88125
rclavicle 1.03492e-014 3.97569e-015
rhumerus -39.9502 -18.7882 -75.1155
rradius 25.6484
rwrist 9.71957
rhand -15.1358 10.1684
rfingers 7.12502
rthumb 11.0338 -19.5215
lclavicle 1.03492e-014 3.97569e-015
lhumerus -32.3745 -1.01477 87.1434
lradius 34.2914
lwrist -9.23795
lhand -15.1494 25.8235
lfingers 7.12502
lthumb 11.0207 55.5142
rfemur -12.9549 2.38221 24.76
rtibia 23.588
rfoot -6.4242 -0.743745
rtoes 11.1631
lfemur -2.14185 -3.73909 -19.5051
ltibia 52.1213
lfoot 21.0278 -17.3128
ltoes 7.52674
357
root 2.74907 18.1089 13.9058 211.107 85.7277 212.508
lowerback 10.2351 -0.863886 -0.285337
upperback 0.0507606 -1.03572 1.97103
thorax -5.65158 -0.460515 2.37755
lowerneck -20.7859 -5.13316 -11.1101
upperneck 29.1871 -5.38628 7.25398
head 13.9582 -2.43245 3.87305
rclavicle 8.24956e-015 -6.75868e-015
rhumerus -39.5422 -18.4067 -75.469
rradius 25.8882
rwrist 9.13653
rhand -15.0107 10.3072
rfingers 7.12502
rthumb 11.1545 -19.3763
lclavicle 8.24956e-015 -6.75868e-015
lhumerus -32.5269 -1.20771 87.2214
lradius 34.0032
lwrist -9.76079
lhand -15.4405 26.0672
lfingers 7.12502
lthumb 10.7399 55.7727
rfemur -12.0792 2.31971 25.6692
rtibia 22.9298
rfoot -6.61899 -0.634695
rtoes 11.4901
lfemur -3.52953 -3.38452 -18.4773
ltibia 53.8562
lfoot 18.6009 -16.4762
ltoes 7.82863
358
root 2.89956 18.1201 13.9199 218.596 85.458 220.188
lowerback 10.2371 -0.759087 0.12334
upperback 0.118599 -0.830887 2.18207
thorax -5.59303 -0.366357 2.33653
lowerneck -20.5802 -5.23517 -11.2704
upperneck 29.1085 -5.52316 7.33681
head 13.9064 -2.50047 3.90753
rclavicle 1.38777e-014 -3.10104e-014
rhumerus -39.091 -18.0578 -75.7244
rradius 26.0623
rwrist 8.86231
rhand -15.1786 10.2526
rfingers 7.12502
rthumb 10.9925 -19.4396
lclavicle 1.38777e-014 -3.10104e-014
lhumerus -32.6501 -1.43032 87.4374
lradius 33.7325
lwrist -9.68142
lhand -15.4076 26.2464
lfingers 7.12502
lthumb 10.7716 55.9502
rfemur -11.0296 2.30998 26.4971
rtibia 22.343
rfoot -6.87267 -0.623595
rtoes 11.5103
lfemur -4.63666 -3.07637 -17.5516
ltibia 55.3275
lfoot 16.2999 -15.4645
ltoes 8.5377
359
root 3.04291 18.1255 13.9363 222.091 85.377 223.928
lowerback 10.3635 -0.612247 0.108283
upperback 0.201214 -0.625439 2.31325
thorax -5.58373 -0.261739 2.45328
lowerneck -20.3975 -5.30389 -11.3506
upperneck 29.0568 -5.60083 7.30708
head 13.8571 -2.54889 3.89389
rclavicle 9.08197e-015 -1.19271e-015
rhumerus -38.6003 -17.9431 -75.826
rradius 26.1312
rwrist 9.03562
rhand -15.442 10.0447
rfingers 7.12502
rthumb 10.7385 -19.6608
lclavicle 9.08197e-015 -1.19271e-015
lhumerus -32.6793 -1.47713 87.69
lradius 33.3765
lwrist -9.4649
lhand -15.1558 26.3485
lfingers 7.12502
lthumb 11.0145 56.0395
rfemur -9.97435 2.73215 26.9395
rtibia 21.8834
rfoot -7.16948 -0.968275
rtoes 12.4554
lfemur -5.6592 -2.63792 -17.0323
ltibia 56.5238
lfoot 13.8594 -14.6073
ltoes 6.68285
360
root 3.1853 18.1317 13.93 223.203 85.6022 224.921
lowerback 10.112 -0.454685 -0.0159239
upperback 0.186885 -0.439153 2.26429
thorax -5.4644 -0.169317 2.4405
lowerneck -20.381 -5.34434 -11.341
upperneck 29.1924 -5.65445 7.2803
head 13.9177 -2.57359 3.87664
rclavicle -4.32357e-015 -1.61016e-014
rhumerus -38.0965 -17.7412 -75.9577
rradius 26.2754
rwrist 9.11337
rhand -15.2398 9.91479
rfingers 7.12502
rthumb 10.9334 -19.7805
lclavicle -4.32357e-015 -1.61016e-014
lhumerus -32.7931 -1.27769 87.6805
lradius 33.1682
lwrist -10.0499
lhand -15.4931 27.178
lfingers 7.12502
lthumb 10.6892 56.8861
rfemur -9.40852 2.84423 26.8775
rtibia 21.5952
rfoot -7.52574 -0.828755
rtoes 13.9997
lfemur -6.9969 -2.19027 -17.0858
ltibia 57.4562
lfoot 11.3539 -13.4651
ltoes 2.75899
361
root 3.32179 18.1317 13.9229 223.45 85.7447 225.184
lowerback 10.0972 -0.314578 -0.0180411
upperback 0.171028 -0.263014 2.1298
thorax -5.48058 -0.0851429 2.27488
lowerneck -20.3213 -5.39975 -11.251
upperneck 29.3247 -5.79761 7.35647
head 13.9785 -2.61349 3.87187
rclavicle 5.37961e-015 -2.0276e-014
rhumerus -37.638 -17.4709 -76.2586
rradius 26.4074
rwrist 8.97084
rhand -15.1014 10.1129
rfingers 7.12502
rthumb 11.0669 -19.5753
lclavicle 5.37961e-015 -2.0276e-014
lhumerus -32.9889 -1.24945 87.4795
lradius 33.0863
lwrist -11.0122
lhand -16.1351 28.3754
lfingers 7.12502
lthumb 10.0698 58.1145
rfemur -8.82715 2.45961 26.8539
rtibia 21.4542
rfoot -7.90312 -0.475626
rtoes 13.9842
lfemur -8.21407 -1.81497 -17.1457
ltibia 58.2016
lfoot 9.12477 -12.4741
ltoes -0.747937
362
root 3.45627 18.1269 13.9292 223.409 85.7756 225.504
lowerback 10.4608 -0.146241 -0.0459475
upperback 0.239232 -0.0442271 2.02685
thorax -5.62184 0.0229519 2.15327
lowerneck -20.0629 -5.4981 -11.2155
upperneck 29.3183 -5.99707 7.41818
head 13.9453 -2.68859 3.85636
rclavicle -5.00689e-015 -2.16675e-014
rhumerus -37.2045 -17.3637 -76.5307
rradius 26.5078
rwrist 8.9592
rhand -15.2352 10.2243
rfingers 7.12502
rthumb 10.9379 -19.4708
lclavicle -5.00689e-015 -2.16675e-014
lhumerus -33.1452 -1.20151 87.3157
lradius 32.9282
lwrist -11.8637
lhand -15.6348 28.1576
lfingers 7.12502
lthumb 10.5525 57.8727
rfemur -7.88404 2.32665 26.9857
rtibia 21.3463
rfoot -8.29045 -0.55004
rtoes 12.9196
lfemur -9.04675 -1.55387 -17.0497
ltibia 58.7889
lfoot 7.56922 -11.5736
ltoes -2.09376
